<svg xmlns="http://www.w3.org/2000/svg" width="1200" height="2200" viewBox="0 0 1200 2200" role="img" aria-labelledby="title desc">
  <title id="title">Вертикальная схема CPA-модели Zaymovik</title>
  <desc id="desc">Несколько CPA-офферов передают заявки в единую платформу. После проверок платформа присваивает клиенту скоринговый балл. Балансировщик распределяет каждую прошедшую порог заявку в одну из доступных МФО. После выдачи данные займа отображаются в едином личном кабинете Zaymovik.</desc>

  <defs>
    <marker id="arrow" viewBox="0 0 10 10" refX="9" refY="5" markerWidth="8" markerHeight="8" orient="auto-start-reverse">
      <path d="M 0 0 L 10 5 L 0 10 z" fill="#475569"/>
    </marker>
    <style>
      .title { font: 700 36px -apple-system, BlinkMacSystemFont, "Segoe UI", Arial, sans-serif; fill: #0f172a; }
      .layer { font: 700 18px -apple-system, BlinkMacSystemFont, "Segoe UI", Arial, sans-serif; letter-spacing: 1.5px; fill: #64748b; }
      .label { font: 600 24px -apple-system, BlinkMacSystemFont, "Segoe UI", Arial, sans-serif; fill: #0f172a; text-anchor: middle; }
      .small { font: 400 18px -apple-system, BlinkMacSystemFont, "Segoe UI", Arial, sans-serif; fill: #334155; text-anchor: middle; }
      .note { font: 500 17px -apple-system, BlinkMacSystemFont, "Segoe UI", Arial, sans-serif; fill: #475569; text-anchor: middle; }
      .arrow { fill: none; stroke: #475569; stroke-width: 3; marker-end: url(#arrow); }
      .feedback { fill: none; stroke: #64748b; stroke-width: 3; stroke-dasharray: 10 8; marker-end: url(#arrow); }
      .box { stroke-width: 2.5; }
    </style>
  </defs>

  <rect width="1200" height="2200" fill="#ffffff"/>
  <text x="600" y="48" class="title" text-anchor="middle">CPA-модель Zaymovik</text>

  <rect x="24" y="75" width="1152" height="490" rx="22" fill="#f8fafc" stroke="#e2e8f0"/>
  <text x="50" y="110" class="layer">ПРИВЛЕЧЕНИЕ</text>

  <rect class="box" x="260" y="125" width="680" height="86" rx="16" fill="#dbeafe" stroke="#60a5fa"/>
  <text x="600" y="176" class="label">Веб-мастера и финансовые витрины</text>

  <rect class="box" x="410" y="255" width="380" height="78" rx="16" fill="#dbeafe" stroke="#60a5fa"/>
  <text x="600" y="303" class="label">CPA-сети</text>

  <rect class="box" x="80" y="415" width="300" height="90" rx="14" fill="#eff6ff" stroke="#93c5fd"/>
  <text x="230" y="452" class="label">
    <tspan x="230">Оффер A</tspan>
    <tspan x="230" dy="27" class="small">сайт Zaymovik</tspan>
  </text>

  <rect class="box" x="450" y="415" width="300" height="90" rx="14" fill="#eff6ff" stroke="#93c5fd"/>
  <text x="600" y="452" class="label">
    <tspan x="600">Оффер B</tspan>
    <tspan x="600" dy="27" class="small">отдельный бренд</tspan>
  </text>

  <rect class="box" x="820" y="415" width="300" height="90" rx="14" fill="#eff6ff" stroke="#93c5fd"/>
  <text x="970" y="452" class="label">
    <tspan x="970">Оффер C</tspan>
    <tspan x="970" dy="27" class="small">отдельный бренд</tspan>
  </text>

  <path class="arrow" d="M600 211 V255"/>
  <path class="arrow" d="M600 333 V365 H230 V415"/>
  <path class="arrow" d="M600 333 V415"/>
  <path class="arrow" d="M600 333 V365 H970 V415"/>

  <rect x="24" y="590" width="1152" height="770" rx="22" fill="#fff7ed" stroke="#fed7aa"/>
  <text x="50" y="625" class="layer">ЕДИНАЯ ПЛАТФОРМА</text>

  <rect class="box" x="300" y="655" width="600" height="90" rx="16" fill="#ffedd5" stroke="#fb923c"/>
  <text x="600" y="692" class="label">
    <tspan x="600">Единый приём заявок</tspan>
    <tspan x="600" dy="27" class="small">общая база для всех сайтов</tspan>
  </text>

  <path class="arrow" d="M230 505 V575 H480 V655"/>
  <path class="arrow" d="M600 505 V655"/>
  <path class="arrow" d="M970 505 V575 H720 V655"/>

  <rect class="box" x="300" y="790" width="600" height="100" rx="16" fill="#ffedd5" stroke="#fb923c"/>
  <text x="600" y="827" class="label">
    <tspan x="600">Проверка заявки</tspan>
    <tspan x="600" dy="28" class="small">валидация · антифрод · дедупликация</tspan>
  </text>

  <path class="arrow" d="M600 745 V790"/>

  <rect class="box" x="300" y="935" width="600" height="110" rx="16" fill="#ffedd5" stroke="#fb923c"/>
  <text x="600" y="972" class="label">
    <tspan x="600">Внутренний скоринг платформы</tspan>
    <tspan x="600" dy="27" class="small">скоринговый балл · порог отсечения</tspan>
  </text>

  <path class="arrow" d="M600 890 V935"/>

  <path class="arrow" d="M600 1045 V1120"/>

  <polygon class="box" points="600,1120 920,1210 600,1300 280,1210" fill="#fed7aa" stroke="#f97316"/>
  <text x="600" y="1199" class="label">
    <tspan x="600">Балансировщик</tspan>
    <tspan x="600" dy="28" class="small">балл · ликвидность · лимиты · веса</tspan>
    <tspan x="600" dy="24" class="note">одна заявка → одна МФО</tspan>
  </text>

  <rect x="24" y="1385" width="1152" height="780" rx="22" fill="#f0fdf4" stroke="#bbf7d0"/>
  <text x="50" y="1420" class="layer">МФО И РЕЗУЛЬТАТ</text>

  <rect class="box" x="60" y="1470" width="320" height="110" rx="16" fill="#dcfce7" stroke="#4ade80"/>
  <text x="220" y="1511" class="label">
    <tspan x="220">МФО 1</tspan>
    <tspan x="220" dy="28" class="small">ПДН · решение · выдача</tspan>
  </text>

  <rect class="box" x="440" y="1470" width="320" height="110" rx="16" fill="#dcfce7" stroke="#4ade80"/>
  <text x="600" y="1511" class="label">
    <tspan x="600">МФО 2</tspan>
    <tspan x="600" dy="28" class="small">ПДН · решение · выдача</tspan>
  </text>

  <rect class="box" x="820" y="1470" width="320" height="110" rx="16" fill="#dcfce7" stroke="#4ade80"/>
  <text x="980" y="1511" class="label">
    <tspan x="980">МФО N</tspan>
    <tspan x="980" dy="28" class="small">ПДН · решение · выдача</tspan>
  </text>

  <path class="arrow" d="M600 1300 V1435 H220 V1470"/>
  <path class="arrow" d="M600 1300 V1470"/>
  <path class="arrow" d="M600 1435 H980 V1470"/>

  <rect class="box" x="260" y="1680" width="680" height="100" rx="16" fill="#dcfce7" stroke="#4ade80"/>
  <text x="600" y="1717" class="label">
    <tspan x="600">Статус и данные займа возвращаются</tspan>
    <tspan x="600" dy="28" class="small">кредитор · долг · график · платежи</tspan>
  </text>

  <path class="arrow" d="M220 1580 V1635 H400 V1680"/>
  <path class="arrow" d="M600 1580 V1680"/>
  <path class="arrow" d="M980 1580 V1635 H800 V1680"/>

  <rect class="box" x="80" y="1880" width="660" height="120" rx="16" fill="#dbeafe" stroke="#60a5fa"/>
  <text x="410" y="1917" class="label">
    <tspan x="410">Единый ЛК Zaymovik</tspan>
    <tspan x="410" dy="28" class="small">один кабинет для клиентов всех сайтов</tspan>
    <tspan x="410" dy="24" class="note">отображает данные выбранной МФО</tspan>
  </text>

  <rect class="box" x="780" y="1880" width="340" height="120" rx="16" fill="#e2e8f0" stroke="#64748b"/>
  <text x="950" y="1926" class="label">
    <tspan x="950">Статистика</tspan>
    <tspan x="950" dy="28" class="small">сверка · экономика</tspan>
  </text>

  <path class="arrow" d="M600 1780 V1830 H410 V1880"/>
  <path class="arrow" d="M600 1830 H950 V1880"/>

  <path class="feedback" d="M950 2000 V2110 H1150 V1210 H920"/>
  <text x="1122" y="1605" class="note" transform="rotate(-90 1122 1605)">анализ → настройка порога и весов</text>
</svg>
